<svg width="34" height="35" viewBox="0 0 34 35" fill="none" xmlns="http://www.w3.org/2000/svg">
<path d="M16.9999 0.833333C7.78325 0.833333 0.333252 8.28333 0.333252 17.5C0.333252 26.7167 7.78325 34.1667 16.9999 34.1667C26.2166 34.1667 33.6666 26.7167 33.6666 17.5C33.6666 8.28333 26.2166 0.833333 16.9999 0.833333ZM16.9999 30.8333C9.64992 30.8333 3.66659 24.85 3.66659 17.5C3.66659 10.15 9.64992 4.16667 16.9999 4.16667C24.3499 4.16667 30.3333 10.15 30.3333 17.5C30.3333 24.85 24.3499 30.8333 16.9999 30.8333ZM22.9833 9.16667L16.9999 15.15L11.0166 9.16667L8.66658 11.5167L14.6499 17.5L8.66658 23.4833L11.0166 25.8333L16.9999 19.85L22.9833 25.8333L25.3333 23.4833L19.3499 17.5L25.3333 11.5167L22.9833 9.16667Z" fill="#E7AF86"/>
</svg>
