<svg width="36" height="33" viewBox="0 0 36 33" fill="none" xmlns="http://www.w3.org/2000/svg">
<path d="M34 28.5C34.5098 28.5006 35.0001 28.6958 35.3707 29.0457C35.7414 29.3956 35.9645 29.8739 35.9943 30.3828C36.0242 30.8917 35.8587 31.3928 35.5315 31.7837C35.2043 32.1746 34.7402 32.4258 34.234 32.486L34 32.5H2C1.49024 32.4994 0.999936 32.3042 0.629263 31.9543C0.258591 31.6044 0.03553 31.1261 0.00565577 30.6172C-0.0242185 30.1083 0.141349 29.6072 0.46853 29.2163C0.79571 28.8254 1.25981 28.5742 1.766 28.514L2 28.5H34ZM34 14.5C34.5304 14.5 35.0391 14.7107 35.4142 15.0858C35.7893 15.4609 36 15.9696 36 16.5C36 17.0304 35.7893 17.5391 35.4142 17.9142C35.0391 18.2893 34.5304 18.5 34 18.5H2C1.46957 18.5 0.960859 18.2893 0.585786 17.9142C0.210714 17.5391 0 17.0304 0 16.5C0 15.9696 0.210714 15.4609 0.585786 15.0858C0.960859 14.7107 1.46957 14.5 2 14.5H34ZM34 0.5C34.5304 0.5 35.0391 0.710714 35.4142 1.08579C35.7893 1.46086 36 1.96957 36 2.5C36 3.03043 35.7893 3.53914 35.4142 3.91421C35.0391 4.28929 34.5304 4.5 34 4.5H2C1.46957 4.5 0.960859 4.28929 0.585786 3.91421C0.210714 3.53914 0 3.03043 0 2.5C0 1.96957 0.210714 1.46086 0.585786 1.08579C0.960859 0.710714 1.46957 0.5 2 0.5H34Z" fill="#E7AF86"/>
</svg>
