<svg width="39" height="50" viewBox="0 0 39 50" fill="none" xmlns="http://www.w3.org/2000/svg">
<path d="M9.14088 23.63C9.16102 23.6397 9.18204 23.644 9.20481 23.6423C9.22671 23.6414 9.24685 23.6344 9.26612 23.623C9.28539 23.6108 9.30028 23.595 9.31079 23.5757C9.3213 23.5565 9.32656 23.5354 9.32656 23.5135C9.32656 22.2558 9.32043 20.9964 9.30816 19.7352C9.30378 19.2894 9.3248 18.8602 9.3721 18.4468C9.43428 17.9073 9.47632 17.3205 9.6366 16.8029C10.4616 14.1175 12.0977 12.2371 14.5448 11.1607C16.1029 10.4767 17.8354 10.1981 19.7403 10.326C20.8929 10.4022 22.0446 10.714 23.1937 11.2605C25.7372 12.4709 27.4477 14.4381 28.3262 17.1619C28.9384 19.0625 28.9165 21.2784 28.2981 23.1939C27.453 25.8161 25.7687 27.7622 23.2463 29.0331C22.2286 29.5463 20.9674 29.9396 19.4635 30.2146C17.5087 30.5702 15.5161 30.593 13.4877 30.282C10.5063 29.824 7.835 28.6959 5.47636 26.8995C1.33363 23.743 -0.698319 18.2883 0.216059 13.1961C0.692516 10.5485 1.7733 8.231 3.45842 6.24371C4.26157 5.29693 5.18996 4.44386 6.2436 3.68451C9.25736 1.51155 12.6994 0.301135 16.5689 0.0541478C19.6142 -0.140289 22.5631 0.173262 25.3755 1.24967C28.9463 2.61686 31.8943 4.78456 34.2197 7.75279C34.7102 8.37814 35.2024 9.07268 35.6937 9.83554C36.1133 10.4863 36.4084 11.1948 36.7439 11.8929C37.7231 13.9353 38.2748 16.0864 38.3983 18.3461C38.4851 19.9103 38.4124 21.4352 38.182 22.9224C37.0881 29.9519 32.2097 36.0302 25.5244 38.4133C22.141 39.6203 18.5956 40.1554 14.8873 40.0205C14.7279 40.0153 14.6482 40.0923 14.6482 40.2526C14.6543 41.2633 14.6499 42.253 14.6359 43.2226C14.6271 43.8094 14.4695 44.5644 14.1621 45.4866C13.6129 47.1341 12.4156 48.3717 10.861 49.1573C9.76273 49.7134 8.68281 49.9596 7.62129 49.8947C5.27229 49.752 3.47944 48.7483 2.24275 46.8862C1.6612 46.0113 1.26356 45.0365 1.05074 43.9609C0.887829 43.1359 0.809003 42.1374 0.814258 40.9647C0.824769 38.324 0.798493 35.6098 0.735433 32.8237C0.728426 32.483 0.792362 32.1695 0.794114 31.834C0.803748 30.7795 0.809003 29.7066 0.810755 28.6162C0.810755 28.498 0.856299 28.4761 0.947386 28.5488C1.00519 28.596 1.04198 28.6582 1.05687 28.7362C1.06825 28.7992 1.09278 28.8588 1.12956 28.9131C2.14554 30.4598 3.60206 31.7307 5.50176 32.7256C8.24226 34.1603 11.0239 35.0676 14.0666 35.3356C17.4071 35.6308 20.6897 35.2069 23.9154 34.0648C26.1672 33.2678 28.1221 31.954 29.7818 30.1235C32.0494 27.6212 33.6092 24.2782 33.731 20.8703C33.7459 20.4262 33.8221 19.9979 33.7967 19.5635C33.724 18.3172 33.5506 17.2241 33.2756 16.2852C31.9162 11.6468 28.7159 7.85439 24.2001 6.06855C23.0422 5.61048 21.873 5.2689 20.6932 5.04469C18.12 4.55334 15.524 4.75216 12.9061 5.64026C10.2856 6.52749 7.73953 8.12765 6.26286 10.4101C4.58475 13.007 4.24931 16.4692 5.46848 19.3577C6.13937 20.9482 7.16936 22.2541 8.55757 23.2762C8.745 23.4146 8.93943 23.5328 9.14088 23.63ZM24.0381 19.207C23.8541 18.0632 23.3225 17.0901 22.4431 16.287C21.6549 15.567 20.6801 15.1353 19.5196 14.9934C18.3214 14.8471 17.203 15.0801 16.1625 15.6914C14.4275 16.7118 13.8687 18.6728 14.0237 20.5663C14.1559 22.1735 14.0964 23.8394 14.0964 25.4229C14.0964 25.6103 14.1883 25.7163 14.3732 25.7417C15.9523 25.9606 17.5148 25.9098 19.0589 25.5893C21.0234 25.1803 22.8364 24.2493 23.6965 22.3636C24.1151 21.4457 24.2281 20.3938 24.0381 19.207ZM5.29594 42.853C5.30469 43.5309 5.44308 44.1142 5.93705 44.5793C6.39774 45.0111 6.88471 45.2449 7.39883 45.2791C8.43232 45.35 9.3975 44.7974 9.77148 43.8313C9.8941 43.5125 9.95278 43.1192 9.94665 42.6524C9.93264 41.6172 9.9195 40.5487 9.90461 39.4468C9.90198 39.2577 9.81878 39.1394 9.655 39.093C8.28956 38.7164 6.89697 38.2329 5.47811 37.6426C5.45622 37.6339 5.43432 37.6303 5.41155 37.633C5.38878 37.6347 5.36775 37.6426 5.34849 37.6549C5.33009 37.6671 5.31433 37.6838 5.30382 37.7039C5.29243 37.7241 5.28718 37.7451 5.2863 37.7687C5.26966 39.5134 5.27229 41.2082 5.29594 42.853Z" fill="#E7AF86"/>
</svg>
